<?xml version="1.0" standalone="no"?>
<!DOCTYPE svg PUBLIC "-//W3C//DTD SVG 20010904//EN"
 "http://www.w3.org/TR/2001/REC-SVG-20010904/DTD/svg10.dtd">
<svg version="1.0" xmlns="http://www.w3.org/2000/svg"
 width="1896.000000pt" height="1896.000000pt" viewBox="0 0 1896.000000 1896.000000"
 preserveAspectRatio="xMidYMid meet">
<metadata>
Created by potrace 1.11, written by Peter Selinger 2001-2013
</metadata>
<g transform="translate(0.000000,1896.000000) scale(0.100000,-0.100000)"
fill="#000000" stroke="none">
<path d="M12467 13828 c-13 -24 -34 -59 -45 -78 -30 -54 -328 -558 -363 -615
-11 -16 -22 -37 -25 -45 -4 -8 -13 -22 -19 -30 -7 -8 -21 -31 -32 -50 -21 -39
-246 -421 -272 -460 -8 -14 -21 -34 -27 -45 -6 -11 -98 -166 -204 -345 -162
-273 -264 -444 -361 -608 -183 -309 -239 -405 -239 -409 0 -4 -6 -14 -14 -22
-28 -31 -116 -208 -116 -232 1 -40 23 -59 68 -59 58 0 67 12 203 265 23 44 51
96 61 116 l19 37 705 -2 706 -2 37 -69 c20 -39 65 -124 100 -190 l63 -120 569
0 c313 0 569 -1 569 -2 0 -2 -19 -7 -165 -52 -55 -16 -167 -51 -250 -76 -82
-26 -186 -57 -230 -70 -44 -13 -109 -33 -145 -45 -36 -12 -72 -23 -80 -25 -8
-2 -76 -22 -150 -45 -201 -62 -482 -147 -595 -181 -55 -16 -111 -34 -125 -39
-14 -4 -70 -22 -125 -39 -55 -17 -206 -62 -335 -102 -129 -39 -262 -79 -295
-89 -62 -19 -338 -103 -830 -255 -154 -47 -287 -88 -295 -90 -34 -9 -311 -93
-695 -211 -115 -36 -271 -83 -345 -106 -337 -102 -371 -118 -457 -212 -83 -91
-123 -196 -123 -323 0 -60 10 -105 61 -270 33 -109 72 -236 85 -283 14 -47 30
-98 36 -115 13 -40 117 -379 208 -680 10 -33 28 -91 40 -129 12 -38 23 -76 25
-85 2 -9 19 -65 38 -126 19 -60 37 -119 40 -130 3 -11 18 -58 32 -105 15 -47
35 -112 45 -145 124 -410 204 -672 222 -725 11 -36 24 -78 29 -95 4 -16 30
-104 58 -195 29 -91 63 -203 77 -250 68 -224 89 -269 161 -343 122 -126 305
-174 472 -126 36 11 73 21 81 24 24 6 995 303 1235 376 128 40 424 130 765
234 96 29 204 62 240 73 129 41 466 144 495 152 17 4 172 52 345 105 173 53
329 101 345 105 26 7 502 153 590 181 17 6 37 12 46 14 9 2 77 22 150 45 215
66 338 104 603 185 137 42 270 82 295 90 150 47 378 117 391 120 15 3 201 60
500 152 162 49 308 94 480 147 63 19 174 53 245 75 72 21 285 87 475 145 190
57 442 135 560 171 118 36 222 68 230 70 74 18 350 108 385 125 65 31 120 78
170 145 63 84 89 167 89 280 -1 86 -6 107 -113 455 -62 201 -114 372 -116 380
-2 8 -45 148 -95 310 -50 162 -97 318 -105 345 -17 61 -51 173 -100 325 -20
63 -38 122 -40 130 -2 8 -51 170 -110 360 -58 190 -108 352 -110 360 -6 24
-40 135 -85 280 -23 74 -45 149 -50 165 -44 163 -137 440 -162 481 -105 176
-295 263 -493 228 -16 -3 -205 -59 -420 -124 -416 -127 -445 -135 -445 -127 0
3 -6 38 -14 79 -26 134 -97 285 -202 428 -26 36 -50 67 -53 70 -3 3 -24 28
-46 55 -22 28 -49 61 -61 75 -74 87 -209 240 -279 315 -16 18 -70 76 -120 130
-49 54 -106 115 -125 136 -176 186 -256 289 -309 396 -27 53 -35 91 -32 150 1
27 45 79 83 99 46 24 76 29 163 28 232 -1 452 -89 653 -259 32 -27 63 -45 78
-45 31 0 74 41 69 66 -2 11 -4 24 -4 30 -2 19 -94 109 -157 151 -135 91 -346
165 -539 188 -117 15 -361 9 -480 -10 -402 -68 -746 -314 -839 -601 -29 -89
-37 -142 -38 -239 0 -234 96 -454 326 -739 45 -56 95 -116 111 -135 80 -92
191 -218 205 -231 15 -15 179 -195 250 -274 19 -22 44 -49 55 -60 11 -12 45
-51 75 -86 30 -36 59 -68 64 -71 8 -6 -67 -32 -374 -125 -63 -20 -164 -51
-225 -70 l-109 -34 -53 35 c-30 20 -96 76 -148 125 -102 97 -122 106 -169 69
-61 -48 -11 -144 127 -246 26 -19 46 -37 43 -40 -2 -2 -69 -24 -148 -48 -78
-24 -150 -46 -159 -49 -10 -5 -20 3 -32 26 -9 18 -27 51 -40 73 -13 22 -88
157 -167 300 -79 143 -151 274 -160 290 -9 17 -77 140 -152 275 -333 603 -673
1218 -688 1245 -35 63 -79 142 -108 195 -16 30 -41 76 -56 103 -14 26 -38 68
-52 95 -15 26 -49 88 -77 137 -28 50 -57 104 -65 120 -35 69 -37 70 -65 23z
m-561 -1435 c114 -215 217 -410 289 -548 81 -155 140 -267 192 -362 25 -46 43
-84 41 -84 -28 -10 -1198 -10 -1227 0 -2 0 1 7 6 14 6 6 22 32 35 57 88 159
458 791 497 850 10 14 37 60 61 103 24 42 45 77 46 77 1 0 28 -48 60 -107z"/>
<path d="M1407 13784 c-1 -1 -33 -4 -72 -8 -283 -25 -577 -150 -810 -346 -120
-101 -250 -262 -333 -410 -50 -90 -125 -267 -136 -320 -3 -14 -12 -53 -21 -88
-8 -35 -18 -86 -23 -115 -9 -66 -9 -334 0 -407 7 -52 9 -69 24 -145 11 -55 76
-238 108 -304 152 -313 368 -533 671 -686 232 -118 436 -169 675 -169 169 0
229 6 365 40 337 84 582 236 805 499 69 82 154 204 183 262 49 102 19 167 -65
140 -20 -6 -42 -33 -80 -95 -155 -260 -355 -458 -567 -566 -219 -110 -411
-156 -639 -151 -92 1 -136 6 -141 14 -5 7 -9 126 -11 264 -4 322 -4 1702 0
2125 l3 322 26 7 c61 17 308 4 416 -22 307 -72 597 -249 755 -460 71 -94 106
-125 144 -125 25 0 56 37 56 68 0 70 -164 255 -344 389 -153 114 -365 213
-531 248 -94 20 -98 21 -170 30 -53 7 -282 14 -288 9z"/>
<path d="M9398 13785 c-2 -1 -38 -5 -80 -9 -43 -4 -83 -8 -90 -11 -7 -2 -29
-6 -48 -9 -55 -9 -172 -43 -253 -75 -288 -115 -545 -330 -716 -602 -79 -127
-169 -349 -195 -484 -4 -16 -9 -41 -11 -55 -18 -92 -24 -277 -12 -410 28 -326
189 -665 431 -905 151 -150 301 -248 504 -329 211 -84 340 -110 557 -110 252
0 444 44 670 154 145 70 265 154 376 263 141 138 298 351 315 428 2 10 6 28 8
39 11 50 -71 84 -113 46 -11 -10 -39 -52 -64 -94 -67 -115 -158 -231 -258
-332 -179 -179 -405 -298 -681 -357 -97 -21 -379 -26 -398 -7 -26 26 -27 2691
-1 2717 12 12 213 15 296 5 96 -12 126 -18 200 -40 303 -87 531 -240 727 -486
64 -79 93 -94 134 -68 35 24 39 40 20 90 -39 101 -239 296 -432 418 -131 84
-325 164 -456 188 -29 6 -62 12 -74 14 -71 14 -346 30 -356 21z"/>
<path d="M5791 13723 c-30 -25 -38 -69 -34 -203 1 -63 4 -269 6 -456 l4 -342
-71 -2 c-103 -5 -1170 -5 -1238 0 -44 3 -58 7 -59 19 -1 19 0 198 6 644 l3
317 -636 -2 -636 -3 4 -245 c4 -270 2 -1699 -3 -2237 -2 -234 0 -343 7 -346 6
-2 292 -3 636 -3 l625 1 -2 400 c-1 220 -3 599 -5 842 -1 243 1 445 5 449 12
12 984 20 1267 11 l95 -3 0 -844 c0 -941 -4 -885 68 -892 30 -3 44 2 63 19 28
26 27 -1 24 378 -5 496 -3 1789 2 2115 2 168 1 319 -4 337 -16 58 -82 82 -127
46z"/>
<path d="M6359 13683 c0 -10 0 -58 1 -108 1 -49 2 -679 3 -1400 l2 -1310 631
0 631 0 0 1175 c-1 646 0 1272 1 1390 2 118 3 227 3 243 l-1 27 -635 0 c-598
0 -635 -1 -636 -17z"/>
</g>
</svg>
